<mxfile host="65bd71144e">
    <diagram id="FDXUXd6RSKfDzRSC8YxJ" name="PÃ¡gina-1">
        <mxGraphModel dx="576" dy="461" grid="1" gridSize="10" guides="1" tooltips="1" connect="1" arrows="1" fold="1" page="1" pageScale="1" pageWidth="827" pageHeight="1169" math="0" shadow="0">
            <root>
                <mxCell id="0"/>
                <mxCell id="1" parent="0"/>
                <mxCell id="5" style="edgeStyle=none;html=1;" parent="1" source="2" target="4" edge="1">
                    <mxGeometry relative="1" as="geometry"/>
                </mxCell>
                <mxCell id="2" value="Inicio" style="ellipse;whiteSpace=wrap;html=1;fillColor=#60a917;fontColor=#ffffff;strokeColor=#2D7600;" parent="1" vertex="1">
                    <mxGeometry x="330" y="40" width="100" height="70" as="geometry"/>
                </mxCell>
                <mxCell id="7" style="edgeStyle=none;html=1;entryX=0.5;entryY=0;entryDx=0;entryDy=0;" parent="1" source="4" target="6" edge="1">
                    <mxGeometry relative="1" as="geometry"/>
                </mxCell>
                <mxCell id="4" value="maq =&lt;br&gt;random.randint&lt;br&gt;(1.100)&lt;br&gt;&lt;br&gt;i = 1" style="rounded=0;whiteSpace=wrap;html=1;fillColor=#0050ef;fontColor=#ffffff;strokeColor=#001DBC;" parent="1" vertex="1">
                    <mxGeometry x="305" y="150" width="150" height="80" as="geometry"/>
                </mxCell>
                <mxCell id="9" style="edgeStyle=none;html=1;entryX=0.5;entryY=0;entryDx=0;entryDy=0;" parent="1" source="6" target="8" edge="1">
                    <mxGeometry relative="1" as="geometry"/>
                </mxCell>
                <mxCell id="6" value="n" style="shape=parallelogram;perimeter=parallelogramPerimeter;whiteSpace=wrap;html=1;fixedSize=1;fillColor=#d80073;fontColor=#ffffff;strokeColor=#A50040;" parent="1" vertex="1">
                    <mxGeometry x="320" y="290" width="120" height="50" as="geometry"/>
                </mxCell>
                <mxCell id="11" style="edgeStyle=none;html=1;entryX=0.5;entryY=0;entryDx=0;entryDy=0;" parent="1" source="8" target="10" edge="1">
                    <mxGeometry relative="1" as="geometry"/>
                </mxCell>
                <mxCell id="13" style="edgeStyle=none;html=1;entryX=0.5;entryY=0;entryDx=0;entryDy=0;" parent="1" source="8" target="12" edge="1">
                    <mxGeometry relative="1" as="geometry">
                        <Array as="points">
                            <mxPoint x="670" y="460"/>
                        </Array>
                    </mxGeometry>
                </mxCell>
                <mxCell id="8" value="n != maq" style="rhombus;whiteSpace=wrap;html=1;fillColor=#60a917;fontColor=#ffffff;strokeColor=#2D7600;" parent="1" vertex="1">
                    <mxGeometry x="340" y="420" width="80" height="80" as="geometry"/>
                </mxCell>
                <mxCell id="21" style="edgeStyle=none;html=1;entryX=0.5;entryY=0;entryDx=0;entryDy=0;" parent="1" source="10" edge="1">
                    <mxGeometry relative="1" as="geometry">
                        <mxPoint x="487.5" y="650" as="targetPoint"/>
                        <Array as="points">
                            <mxPoint x="488" y="600"/>
                        </Array>
                    </mxGeometry>
                </mxCell>
                <mxCell id="22" style="edgeStyle=none;html=1;entryX=0.5;entryY=0;entryDx=0;entryDy=0;" parent="1" source="10" edge="1">
                    <mxGeometry relative="1" as="geometry">
                        <mxPoint x="275" y="650" as="targetPoint"/>
                        <Array as="points">
                            <mxPoint x="275" y="600"/>
                        </Array>
                    </mxGeometry>
                </mxCell>
                <mxCell id="10" value="n &amp;lt; maq" style="rhombus;whiteSpace=wrap;html=1;fillColor=#a20025;fontColor=#ffffff;strokeColor=#6F0000;" parent="1" vertex="1">
                    <mxGeometry x="340" y="560" width="80" height="80" as="geometry"/>
                </mxCell>
                <mxCell id="16" style="edgeStyle=none;html=1;entryX=0.5;entryY=0;entryDx=0;entryDy=0;" parent="1" source="12" target="15" edge="1">
                    <mxGeometry relative="1" as="geometry"/>
                </mxCell>
                <mxCell id="12" value="Le atinaste" style="shape=document;whiteSpace=wrap;html=1;boundedLbl=1;fillColor=#1ba1e2;fontColor=#ffffff;strokeColor=#006EAF;" parent="1" vertex="1">
                    <mxGeometry x="620" y="500" width="100" height="70" as="geometry"/>
                </mxCell>
                <mxCell id="14" value="Falso" style="text;html=1;align=center;verticalAlign=middle;resizable=0;points=[];autosize=1;strokeColor=none;fillColor=none;" parent="1" vertex="1">
                    <mxGeometry x="505" y="435" width="50" height="30" as="geometry"/>
                </mxCell>
                <mxCell id="15" value="Fin" style="ellipse;whiteSpace=wrap;html=1;fillColor=#a0522d;fontColor=#ffffff;strokeColor=#6D1F00;" parent="1" vertex="1">
                    <mxGeometry x="620" y="640" width="100" height="70" as="geometry"/>
                </mxCell>
                <mxCell id="29" style="edgeStyle=none;html=1;entryX=0.5;entryY=0;entryDx=0;entryDy=0;" parent="1" source="23" target="28" edge="1">
                    <mxGeometry relative="1" as="geometry"/>
                </mxCell>
                <mxCell id="23" value="n" style="shape=parallelogram;perimeter=parallelogramPerimeter;whiteSpace=wrap;html=1;fixedSize=1;fillColor=#76608a;fontColor=#ffffff;strokeColor=#432D57;" parent="1" vertex="1">
                    <mxGeometry x="330" y="850" width="100" height="50" as="geometry"/>
                </mxCell>
                <mxCell id="24" value="El valor es menor&amp;nbsp;" style="shape=document;whiteSpace=wrap;html=1;boundedLbl=1;fillColor=#6d8764;fontColor=#ffffff;strokeColor=#3A5431;" parent="1" vertex="1">
                    <mxGeometry x="230" y="650" width="100" height="60" as="geometry"/>
                </mxCell>
                <mxCell id="25" value="&lt;font color=&quot;#ffffff&quot;&gt;El valor es mayor&amp;nbsp;&lt;/font&gt;" style="shape=document;whiteSpace=wrap;html=1;boundedLbl=1;fillColor=#f0a30a;fontColor=#000000;strokeColor=#FFFFFF;" parent="1" vertex="1">
                    <mxGeometry x="440" y="650" width="100" height="60" as="geometry"/>
                </mxCell>
                <mxCell id="26" value="" style="endArrow=none;html=1;" parent="1" target="25" edge="1">
                    <mxGeometry width="50" height="50" relative="1" as="geometry">
                        <mxPoint x="270" y="720" as="sourcePoint"/>
                        <mxPoint x="420" y="780" as="targetPoint"/>
                        <Array as="points">
                            <mxPoint x="270" y="800"/>
                            <mxPoint x="390" y="800"/>
                            <mxPoint x="490" y="800"/>
                        </Array>
                    </mxGeometry>
                </mxCell>
                <mxCell id="27" value="" style="endArrow=classic;html=1;entryX=0.5;entryY=0;entryDx=0;entryDy=0;" parent="1" target="23" edge="1">
                    <mxGeometry width="50" height="50" relative="1" as="geometry">
                        <mxPoint x="380" y="800" as="sourcePoint"/>
                        <mxPoint x="410" y="810" as="targetPoint"/>
                    </mxGeometry>
                </mxCell>
                <mxCell id="30" style="edgeStyle=none;html=1;" parent="1" source="28" edge="1">
                    <mxGeometry relative="1" as="geometry">
                        <mxPoint x="380" y="380" as="targetPoint"/>
                        <Array as="points">
                            <mxPoint x="380" y="1050"/>
                            <mxPoint x="150" y="1050"/>
                            <mxPoint x="150" y="680"/>
                            <mxPoint x="150" y="380"/>
                        </Array>
                    </mxGeometry>
                </mxCell>
                <mxCell id="28" value="i = i + 1" style="rounded=0;whiteSpace=wrap;html=1;fillColor=#dae8fc;gradientColor=#7ea6e0;strokeColor=#6c8ebf;" parent="1" vertex="1">
                    <mxGeometry x="335" y="950" width="90" height="50" as="geometry"/>
                </mxCell>
                <mxCell id="31" value="Verdadero" style="text;html=1;align=center;verticalAlign=middle;resizable=0;points=[];autosize=1;strokeColor=none;fillColor=none;" parent="1" vertex="1">
                    <mxGeometry x="410" y="565" width="80" height="30" as="geometry"/>
                </mxCell>
                <mxCell id="32" value="Falso" style="text;html=1;align=center;verticalAlign=middle;resizable=0;points=[];autosize=1;strokeColor=none;fillColor=none;" parent="1" vertex="1">
                    <mxGeometry x="280" y="570" width="50" height="30" as="geometry"/>
                </mxCell>
                <mxCell id="33" value="Verdadero" style="text;html=1;align=center;verticalAlign=middle;resizable=0;points=[];autosize=1;strokeColor=none;fillColor=none;" parent="1" vertex="1">
                    <mxGeometry x="190" y="345" width="80" height="30" as="geometry"/>
                </mxCell>
            </root>
        </mxGraphModel>
    </diagram>
</mxfile>